<svg width="250" height="30" viewBox="0 0 250 30" fill="none" xmlns="http://www.w3.org/2000/svg">
<mask id="path-1-outside-1_553_601" maskUnits="userSpaceOnUse" x="0" y="-1" width="30" height="30" fill="black">
<rect fill="white" y="-1" width="30" height="30"/>
<path d="M15 21.5625L7.26562 26.25L9.31641 17.4609L2.51953 11.543L11.4844 10.7812L15 2.51953L18.5156 10.7812L27.4805 11.543L20.6836 17.4609L22.7344 26.25L15 21.5625Z"/>
</mask>
<path d="M15 21.5625L15.5183 20.7073L15 20.3932L14.4817 20.7073L15 21.5625ZM7.26562 26.25L6.29178 26.0228L5.75185 28.3368L7.78393 27.1052L7.26562 26.25ZM9.31641 17.4609L10.2902 17.6882L10.427 17.102L9.97307 16.7068L9.31641 17.4609ZM2.51953 11.543L2.43487 10.5466L0.0819024 10.7465L1.86287 12.2972L2.51953 11.543ZM11.4844 10.7812L11.569 11.7777L12.1688 11.7267L12.4045 11.1728L11.4844 10.7812ZM15 2.51953L15.9202 2.12798L15 -0.0343873L14.0798 2.12798L15 2.51953ZM18.5156 10.7812L17.5955 11.1728L17.8312 11.7267L18.431 11.7777L18.5156 10.7812ZM27.4805 11.543L28.1371 12.2972L29.9181 10.7465L27.5651 10.5466L27.4805 11.543ZM20.6836 17.4609L20.0269 16.7068L19.573 17.102L19.7098 17.6882L20.6836 17.4609ZM22.7344 26.25L22.2161 27.1052L24.2481 28.3368L23.7082 26.0228L22.7344 26.25ZM14.4817 20.7073L6.74732 25.3948L7.78393 27.1052L15.5183 22.4177L14.4817 20.7073ZM8.23947 26.4772L10.2902 17.6882L8.34257 17.2337L6.29178 26.0228L8.23947 26.4772ZM9.97307 16.7068L3.17619 10.7888L1.86287 12.2972L8.65974 18.2151L9.97307 16.7068ZM2.60419 12.5394L11.569 11.7777L11.3997 9.78484L2.43487 10.5466L2.60419 12.5394ZM12.4045 11.1728L15.9202 2.91109L14.0798 2.12798L10.5642 10.3897L12.4045 11.1728ZM14.0798 2.91109L17.5955 11.1728L19.4358 10.3897L15.9202 2.12798L14.0798 2.91109ZM18.431 11.7777L27.3958 12.5394L27.5651 10.5466L18.6003 9.78484L18.431 11.7777ZM26.8238 10.7888L20.0269 16.7068L21.3403 18.2151L28.1371 12.2972L26.8238 10.7888ZM19.7098 17.6882L21.7605 26.4772L23.7082 26.0228L21.6574 17.2337L19.7098 17.6882ZM23.2527 25.3948L15.5183 20.7073L14.4817 22.4177L22.2161 27.1052L23.2527 25.3948Z" fill="white" mask="url(#path-1-outside-1_553_601)"/>
<mask id="path-3-outside-2_553_601" maskUnits="userSpaceOnUse" x="55" y="-1" width="30" height="30" fill="black">
<rect fill="white" x="55" y="-1" width="30" height="30"/>
<path d="M70 21.5625L62.2656 26.25L64.3164 17.4609L57.5195 11.543L66.4844 10.7812L70 2.51953L73.5156 10.7812L82.4805 11.543L75.6836 17.4609L77.7344 26.25L70 21.5625Z"/>
</mask>
<path d="M70 21.5625L70.5183 20.7073L70 20.3932L69.4817 20.7073L70 21.5625ZM62.2656 26.25L61.2918 26.0228L60.7519 28.3368L62.7839 27.1052L62.2656 26.25ZM64.3164 17.4609L65.2902 17.6882L65.427 17.102L64.9731 16.7068L64.3164 17.4609ZM57.5195 11.543L57.4349 10.5466L55.0819 10.7465L56.8629 12.2972L57.5195 11.543ZM66.4844 10.7812L66.569 11.7777L67.1688 11.7267L67.4045 11.1728L66.4844 10.7812ZM70 2.51953L70.9202 2.12798L70 -0.0343873L69.0798 2.12798L70 2.51953ZM73.5156 10.7812L72.5955 11.1728L72.8312 11.7267L73.431 11.7777L73.5156 10.7812ZM82.4805 11.543L83.1371 12.2972L84.9181 10.7465L82.5651 10.5466L82.4805 11.543ZM75.6836 17.4609L75.0269 16.7068L74.573 17.102L74.7098 17.6882L75.6836 17.4609ZM77.7344 26.25L77.2161 27.1052L79.2481 28.3368L78.7082 26.0228L77.7344 26.25ZM69.4817 20.7073L61.7473 25.3948L62.7839 27.1052L70.5183 22.4177L69.4817 20.7073ZM63.2395 26.4772L65.2902 17.6882L63.3426 17.2337L61.2918 26.0228L63.2395 26.4772ZM64.9731 16.7068L58.1762 10.7888L56.8629 12.2972L63.6597 18.2151L64.9731 16.7068ZM57.6042 12.5394L66.569 11.7777L66.3997 9.78484L57.4349 10.5466L57.6042 12.5394ZM67.4045 11.1728L70.9202 2.91109L69.0798 2.12798L65.5642 10.3897L67.4045 11.1728ZM69.0798 2.91109L72.5955 11.1728L74.4358 10.3897L70.9202 2.12798L69.0798 2.91109ZM73.431 11.7777L82.3958 12.5394L82.5651 10.5466L73.6003 9.78484L73.431 11.7777ZM81.8238 10.7888L75.0269 16.7068L76.3403 18.2151L83.1371 12.2972L81.8238 10.7888ZM74.7098 17.6882L76.7605 26.4772L78.7082 26.0228L76.6574 17.2337L74.7098 17.6882ZM78.2527 25.3948L70.5183 20.7073L69.4817 22.4177L77.2161 27.1052L78.2527 25.3948Z" fill="white" mask="url(#path-3-outside-2_553_601)"/>
<mask id="path-5-outside-3_553_601" maskUnits="userSpaceOnUse" x="110" y="-1" width="30" height="30" fill="black">
<rect fill="white" x="110" y="-1" width="30" height="30"/>
<path d="M125 21.5625L117.266 26.25L119.316 17.4609L112.52 11.543L121.484 10.7812L125 2.51953L128.516 10.7812L137.48 11.543L130.684 17.4609L132.734 26.25L125 21.5625Z"/>
</mask>
<path d="M125 21.5625L125.518 20.7073L125 20.3932L124.482 20.7073L125 21.5625ZM117.266 26.25L116.292 26.0228L115.752 28.3368L117.784 27.1052L117.266 26.25ZM119.316 17.4609L120.29 17.6882L120.427 17.102L119.973 16.7068L119.316 17.4609ZM112.52 11.543L112.435 10.5466L110.082 10.7465L111.863 12.2972L112.52 11.543ZM121.484 10.7812L121.569 11.7777L122.169 11.7267L122.405 11.1728L121.484 10.7812ZM125 2.51953L125.92 2.12798L125 -0.0343873L124.08 2.12798L125 2.51953ZM128.516 10.7812L127.595 11.1728L127.831 11.7267L128.431 11.7777L128.516 10.7812ZM137.48 11.543L138.137 12.2972L139.918 10.7465L137.565 10.5466L137.48 11.543ZM130.684 17.4609L130.027 16.7068L129.573 17.102L129.71 17.6882L130.684 17.4609ZM132.734 26.25L132.216 27.1052L134.248 28.3368L133.708 26.0228L132.734 26.25ZM124.482 20.7073L116.747 25.3948L117.784 27.1052L125.518 22.4177L124.482 20.7073ZM118.239 26.4772L120.29 17.6882L118.343 17.2337L116.292 26.0228L118.239 26.4772ZM119.973 16.7068L113.176 10.7888L111.863 12.2972L118.66 18.2151L119.973 16.7068ZM112.604 12.5394L121.569 11.7777L121.4 9.78484L112.435 10.5466L112.604 12.5394ZM122.405 11.1728L125.92 2.91109L124.08 2.12798L120.564 10.3897L122.405 11.1728ZM124.08 2.91109L127.595 11.1728L129.436 10.3897L125.92 2.12798L124.08 2.91109ZM128.431 11.7777L137.396 12.5394L137.565 10.5466L128.6 9.78484L128.431 11.7777ZM136.824 10.7888L130.027 16.7068L131.34 18.2151L138.137 12.2972L136.824 10.7888ZM129.71 17.6882L131.761 26.4772L133.708 26.0228L131.657 17.2337L129.71 17.6882ZM133.253 25.3948L125.518 20.7073L124.482 22.4177L132.216 27.1052L133.253 25.3948Z" fill="white" mask="url(#path-5-outside-3_553_601)"/>
<mask id="path-7-outside-4_553_601" maskUnits="userSpaceOnUse" x="165" y="-1" width="30" height="30" fill="black">
<rect fill="white" x="165" y="-1" width="30" height="30"/>
<path d="M180 21.5625L172.266 26.25L174.316 17.4609L167.52 11.543L176.484 10.7812L180 2.51953L183.516 10.7812L192.48 11.543L185.684 17.4609L187.734 26.25L180 21.5625Z"/>
</mask>
<path d="M180 21.5625L180.518 20.7073L180 20.3932L179.482 20.7073L180 21.5625ZM172.266 26.25L171.292 26.0228L170.752 28.3368L172.784 27.1052L172.266 26.25ZM174.316 17.4609L175.29 17.6882L175.427 17.102L174.973 16.7068L174.316 17.4609ZM167.52 11.543L167.435 10.5466L165.082 10.7465L166.863 12.2972L167.52 11.543ZM176.484 10.7812L176.569 11.7777L177.169 11.7267L177.405 11.1728L176.484 10.7812ZM180 2.51953L180.92 2.12798L180 -0.0343873L179.08 2.12798L180 2.51953ZM183.516 10.7812L182.595 11.1728L182.831 11.7267L183.431 11.7777L183.516 10.7812ZM192.48 11.543L193.137 12.2972L194.918 10.7465L192.565 10.5466L192.48 11.543ZM185.684 17.4609L185.027 16.7068L184.573 17.102L184.71 17.6882L185.684 17.4609ZM187.734 26.25L187.216 27.1052L189.248 28.3368L188.708 26.0228L187.734 26.25ZM179.482 20.7073L171.747 25.3948L172.784 27.1052L180.518 22.4177L179.482 20.7073ZM173.239 26.4772L175.29 17.6882L173.343 17.2337L171.292 26.0228L173.239 26.4772ZM174.973 16.7068L168.176 10.7888L166.863 12.2972L173.66 18.2151L174.973 16.7068ZM167.604 12.5394L176.569 11.7777L176.4 9.78484L167.435 10.5466L167.604 12.5394ZM177.405 11.1728L180.92 2.91109L179.08 2.12798L175.564 10.3897L177.405 11.1728ZM179.08 2.91109L182.595 11.1728L184.436 10.3897L180.92 2.12798L179.08 2.91109ZM183.431 11.7777L192.396 12.5394L192.565 10.5466L183.6 9.78484L183.431 11.7777ZM191.824 10.7888L185.027 16.7068L186.34 18.2151L193.137 12.2972L191.824 10.7888ZM184.71 17.6882L186.761 26.4772L188.708 26.0228L186.657 17.2337L184.71 17.6882ZM188.253 25.3948L180.518 20.7073L179.482 22.4177L187.216 27.1052L188.253 25.3948Z" fill="white" mask="url(#path-7-outside-4_553_601)"/>
<mask id="path-9-outside-5_553_601" maskUnits="userSpaceOnUse" x="220" y="-1" width="30" height="30" fill="black">
<rect fill="white" x="220" y="-1" width="30" height="30"/>
<path d="M235 21.5625L227.266 26.25L229.316 17.4609L222.52 11.543L231.484 10.7812L235 2.51953L238.516 10.7812L247.48 11.543L240.684 17.4609L242.734 26.25L235 21.5625Z"/>
</mask>
<path d="M235 21.5625L235.518 20.7073L235 20.3932L234.482 20.7073L235 21.5625ZM227.266 26.25L226.292 26.0228L225.752 28.3368L227.784 27.1052L227.266 26.25ZM229.316 17.4609L230.29 17.6882L230.427 17.102L229.973 16.7068L229.316 17.4609ZM222.52 11.543L222.435 10.5466L220.082 10.7465L221.863 12.2972L222.52 11.543ZM231.484 10.7812L231.569 11.7777L232.169 11.7267L232.405 11.1728L231.484 10.7812ZM235 2.51953L235.92 2.12798L235 -0.0343873L234.08 2.12798L235 2.51953ZM238.516 10.7812L237.595 11.1728L237.831 11.7267L238.431 11.7777L238.516 10.7812ZM247.48 11.543L248.137 12.2972L249.918 10.7465L247.565 10.5466L247.48 11.543ZM240.684 17.4609L240.027 16.7068L239.573 17.102L239.71 17.6882L240.684 17.4609ZM242.734 26.25L242.216 27.1052L244.248 28.3368L243.708 26.0228L242.734 26.25ZM234.482 20.7073L226.747 25.3948L227.784 27.1052L235.518 22.4177L234.482 20.7073ZM228.239 26.4772L230.29 17.6882L228.343 17.2337L226.292 26.0228L228.239 26.4772ZM229.973 16.7068L223.176 10.7888L221.863 12.2972L228.66 18.2151L229.973 16.7068ZM222.604 12.5394L231.569 11.7777L231.4 9.78484L222.435 10.5466L222.604 12.5394ZM232.405 11.1728L235.92 2.91109L234.08 2.12798L230.564 10.3897L232.405 11.1728ZM234.08 2.91109L237.595 11.1728L239.436 10.3897L235.92 2.12798L234.08 2.91109ZM238.431 11.7777L247.396 12.5394L247.565 10.5466L238.6 9.78484L238.431 11.7777ZM246.824 10.7888L240.027 16.7068L241.34 18.2151L248.137 12.2972L246.824 10.7888ZM239.71 17.6882L241.761 26.4772L243.708 26.0228L241.657 17.2337L239.71 17.6882ZM243.253 25.3948L235.518 20.7073L234.482 22.4177L242.216 27.1052L243.253 25.3948Z" fill="white" mask="url(#path-9-outside-5_553_601)"/>
</svg>
